<mxfile host="app.diagrams.net" agent="Mozilla/5.0 (Windows NT 10.0; Win64; x64) AppleWebKit/537.36 (KHTML, like Gecko) Chrome/130.0.0.0 Safari/537.36 QuarkPC/4.3.5.483" version="28.1.0">
  <diagram name="第 1 页" id="DILFKPeZW6VBNe2MMAgT">
    <mxGraphModel dx="1066" dy="705" grid="1" gridSize="10" guides="1" tooltips="1" connect="1" arrows="1" fold="1" page="1" pageScale="1" pageWidth="827" pageHeight="1169" math="0" shadow="0">
      <root>
        <mxCell id="0" />
        <mxCell id="1" parent="0" />
        <mxCell id="h45MkuibeSGPcNOXhlWu-1" value="运维服务请求" style="whiteSpace=wrap;strokeWidth=2;" parent="1" vertex="1">
          <mxGeometry x="920" y="20" width="156" height="54" as="geometry" />
        </mxCell>
        <mxCell id="h45MkuibeSGPcNOXhlWu-2" value="事件分类" style="rhombus;strokeWidth=2;whiteSpace=wrap;" parent="1" vertex="1">
          <mxGeometry x="939" y="124" width="118" height="118" as="geometry" />
        </mxCell>
        <mxCell id="h45MkuibeSGPcNOXhlWu-3" value="事件管理流程" style="whiteSpace=wrap;strokeWidth=2;" parent="1" vertex="1">
          <mxGeometry x="620" y="315" width="156" height="54" as="geometry" />
        </mxCell>
        <mxCell id="h45MkuibeSGPcNOXhlWu-4" value="变更管理流程" style="whiteSpace=wrap;strokeWidth=2;" parent="1" vertex="1">
          <mxGeometry x="998" y="315" width="156" height="54" as="geometry" />
        </mxCell>
        <mxCell id="h45MkuibeSGPcNOXhlWu-5" value="现场管理流程" style="whiteSpace=wrap;strokeWidth=2;" parent="1" vertex="1">
          <mxGeometry x="1204" y="315" width="156" height="54" as="geometry" />
        </mxCell>
        <mxCell id="h45MkuibeSGPcNOXhlWu-6" value="事件记录" style="whiteSpace=wrap;strokeWidth=2;" parent="1" vertex="1">
          <mxGeometry x="636" y="419" width="124" height="54" as="geometry" />
        </mxCell>
        <mxCell id="h45MkuibeSGPcNOXhlWu-7" value="事件分析" style="whiteSpace=wrap;strokeWidth=2;" parent="1" vertex="1">
          <mxGeometry x="636" y="523" width="124" height="54" as="geometry" />
        </mxCell>
        <mxCell id="h45MkuibeSGPcNOXhlWu-8" value="快速解决?" style="whiteSpace=wrap;strokeWidth=2;" parent="1" vertex="1">
          <mxGeometry x="633" y="627" width="130" height="54" as="geometry" />
        </mxCell>
        <mxCell id="h45MkuibeSGPcNOXhlWu-9" value="事件关闭" style="whiteSpace=wrap;strokeWidth=2;" parent="1" vertex="1">
          <mxGeometry x="621" y="1273" width="124" height="54" as="geometry" />
        </mxCell>
        <mxCell id="h45MkuibeSGPcNOXhlWu-10" value="问题管理流程" style="whiteSpace=wrap;strokeWidth=2;" parent="1" vertex="1">
          <mxGeometry x="1315" y="753" width="156" height="54" as="geometry" />
        </mxCell>
        <mxCell id="h45MkuibeSGPcNOXhlWu-11" value="问题识别" style="whiteSpace=wrap;strokeWidth=2;" parent="1" vertex="1">
          <mxGeometry x="1331" y="857" width="124" height="54" as="geometry" />
        </mxCell>
        <mxCell id="h45MkuibeSGPcNOXhlWu-12" value="问题调查" style="whiteSpace=wrap;strokeWidth=2;" parent="1" vertex="1">
          <mxGeometry x="1331" y="961" width="124" height="54" as="geometry" />
        </mxCell>
        <mxCell id="h45MkuibeSGPcNOXhlWu-13" value="解决方案制定" style="whiteSpace=wrap;strokeWidth=2;" parent="1" vertex="1">
          <mxGeometry x="1315" y="1065" width="156" height="54" as="geometry" />
        </mxCell>
        <mxCell id="h45MkuibeSGPcNOXhlWu-14" value="方案实施" style="whiteSpace=wrap;strokeWidth=2;" parent="1" vertex="1">
          <mxGeometry x="1331" y="1169" width="124" height="54" as="geometry" />
        </mxCell>
        <mxCell id="h45MkuibeSGPcNOXhlWu-15" value="问题关闭" style="whiteSpace=wrap;strokeWidth=2;" parent="1" vertex="1">
          <mxGeometry x="1331" y="1273" width="124" height="54" as="geometry" />
        </mxCell>
        <mxCell id="h45MkuibeSGPcNOXhlWu-16" value="变更申请" style="whiteSpace=wrap;strokeWidth=2;" parent="1" vertex="1">
          <mxGeometry x="1014" y="419" width="124" height="54" as="geometry" />
        </mxCell>
        <mxCell id="h45MkuibeSGPcNOXhlWu-17" value="变更评估" style="whiteSpace=wrap;strokeWidth=2;" parent="1" vertex="1">
          <mxGeometry x="1014" y="523" width="124" height="54" as="geometry" />
        </mxCell>
        <mxCell id="h45MkuibeSGPcNOXhlWu-18" value="变更审批" style="whiteSpace=wrap;strokeWidth=2;" parent="1" vertex="1">
          <mxGeometry x="1014" y="627" width="124" height="54" as="geometry" />
        </mxCell>
        <mxCell id="h45MkuibeSGPcNOXhlWu-19" value="变更实施" style="whiteSpace=wrap;strokeWidth=2;" parent="1" vertex="1">
          <mxGeometry x="935" y="753" width="124" height="54" as="geometry" />
        </mxCell>
        <mxCell id="h45MkuibeSGPcNOXhlWu-20" value="变更验证" style="whiteSpace=wrap;strokeWidth=2;" parent="1" vertex="1">
          <mxGeometry x="935" y="857" width="124" height="54" as="geometry" />
        </mxCell>
        <mxCell id="h45MkuibeSGPcNOXhlWu-21" value="变更关闭" style="whiteSpace=wrap;strokeWidth=2;" parent="1" vertex="1">
          <mxGeometry x="935" y="961" width="124" height="54" as="geometry" />
        </mxCell>
        <mxCell id="h45MkuibeSGPcNOXhlWu-22" value="现场巡检" style="whiteSpace=wrap;strokeWidth=2;" parent="1" vertex="1">
          <mxGeometry x="1220" y="419" width="124" height="54" as="geometry" />
        </mxCell>
        <mxCell id="h45MkuibeSGPcNOXhlWu-23" value="预防性维护" style="whiteSpace=wrap;strokeWidth=2;" parent="1" vertex="1">
          <mxGeometry x="1212" y="523" width="140" height="54" as="geometry" />
        </mxCell>
        <mxCell id="h45MkuibeSGPcNOXhlWu-24" value="维护记录" style="whiteSpace=wrap;strokeWidth=2;" parent="1" vertex="1">
          <mxGeometry x="1220" y="627" width="124" height="54" as="geometry" />
        </mxCell>
        <mxCell id="h45MkuibeSGPcNOXhlWu-25" value="状态更新" style="whiteSpace=wrap;strokeWidth=2;" parent="1" vertex="1">
          <mxGeometry x="1141" y="753" width="124" height="54" as="geometry" />
        </mxCell>
        <mxCell id="h45MkuibeSGPcNOXhlWu-26" value="配置管理" style="whiteSpace=wrap;strokeWidth=2;" parent="1" vertex="1">
          <mxGeometry x="1485" y="315" width="124" height="54" as="geometry" />
        </mxCell>
        <mxCell id="h45MkuibeSGPcNOXhlWu-27" value="配置项识别" style="whiteSpace=wrap;strokeWidth=2;" parent="1" vertex="1">
          <mxGeometry x="1477" y="419" width="140" height="54" as="geometry" />
        </mxCell>
        <mxCell id="h45MkuibeSGPcNOXhlWu-28" value="配置信息维护" style="whiteSpace=wrap;strokeWidth=2;" parent="1" vertex="1">
          <mxGeometry x="1469" y="523" width="156" height="54" as="geometry" />
        </mxCell>
        <mxCell id="h45MkuibeSGPcNOXhlWu-29" value="配置审计" style="whiteSpace=wrap;strokeWidth=2;" parent="1" vertex="1">
          <mxGeometry x="1485" y="627" width="124" height="54" as="geometry" />
        </mxCell>
        <mxCell id="h45MkuibeSGPcNOXhlWu-30" value="服务报告" style="whiteSpace=wrap;strokeWidth=2;" parent="1" vertex="1">
          <mxGeometry x="1292" y="1377" width="124" height="54" as="geometry" />
        </mxCell>
        <mxCell id="h45MkuibeSGPcNOXhlWu-31" value="知识库更新" style="whiteSpace=wrap;strokeWidth=2;" parent="1" vertex="1">
          <mxGeometry x="1284" y="1481" width="140" height="54" as="geometry" />
        </mxCell>
        <mxCell id="h45MkuibeSGPcNOXhlWu-32" value="服务改进" style="whiteSpace=wrap;strokeWidth=2;" parent="1" vertex="1">
          <mxGeometry x="1292" y="1585" width="124" height="54" as="geometry" />
        </mxCell>
        <mxCell id="h45MkuibeSGPcNOXhlWu-33" value="五大专业组" style="whiteSpace=wrap;strokeWidth=2;" parent="1" vertex="1">
          <mxGeometry x="330" y="20" width="140" height="54" as="geometry" />
        </mxCell>
        <mxCell id="h45MkuibeSGPcNOXhlWu-34" value="货运区组" style="whiteSpace=wrap;strokeWidth=2;" parent="1" vertex="1">
          <mxGeometry x="20" y="156" width="124" height="54" as="geometry" />
        </mxCell>
        <mxCell id="h45MkuibeSGPcNOXhlWu-35" value="信息大楼组" style="whiteSpace=wrap;strokeWidth=2;" parent="1" vertex="1">
          <mxGeometry x="194" y="156" width="140" height="54" as="geometry" />
        </mxCell>
        <mxCell id="h45MkuibeSGPcNOXhlWu-36" value="ITC组" style="whiteSpace=wrap;strokeWidth=2;" parent="1" vertex="1">
          <mxGeometry x="384" y="156" width="99" height="54" as="geometry" />
        </mxCell>
        <mxCell id="h45MkuibeSGPcNOXhlWu-37" value="无线通讯组" style="whiteSpace=wrap;strokeWidth=2;" parent="1" vertex="1">
          <mxGeometry x="533" y="156" width="140" height="54" as="geometry" />
        </mxCell>
        <mxCell id="h45MkuibeSGPcNOXhlWu-38" value="通信管线组" style="whiteSpace=wrap;strokeWidth=2;" parent="1" vertex="1">
          <mxGeometry x="723" y="156" width="140" height="54" as="geometry" />
        </mxCell>
        <mxCell id="h45MkuibeSGPcNOXhlWu-39" value="IMOC运维可视化" style="whiteSpace=wrap;strokeWidth=2;" parent="1" vertex="1">
          <mxGeometry x="1291" y="156" width="176" height="54" as="geometry" />
        </mxCell>
        <mxCell id="h45MkuibeSGPcNOXhlWu-40" value="运维标准规范" style="whiteSpace=wrap;strokeWidth=2;" parent="1" vertex="1">
          <mxGeometry x="1582" y="156" width="156" height="54" as="geometry" />
        </mxCell>
        <mxCell id="h45MkuibeSGPcNOXhlWu-41" value="" style="curved=1;startArrow=none;endArrow=block;exitX=0.5;exitY=1;entryX=0.5;entryY=0;rounded=0;" parent="1" source="h45MkuibeSGPcNOXhlWu-1" target="h45MkuibeSGPcNOXhlWu-2" edge="1">
          <mxGeometry relative="1" as="geometry">
            <Array as="points" />
          </mxGeometry>
        </mxCell>
        <mxCell id="h45MkuibeSGPcNOXhlWu-42" value="故障事件" style="curved=1;startArrow=none;endArrow=block;exitX=0;exitY=0.86;entryX=0.96;entryY=-0.01;rounded=0;" parent="1" source="h45MkuibeSGPcNOXhlWu-2" target="h45MkuibeSGPcNOXhlWu-3" edge="1">
          <mxGeometry relative="1" as="geometry">
            <Array as="points">
              <mxPoint x="866" y="278" />
            </Array>
          </mxGeometry>
        </mxCell>
        <mxCell id="h45MkuibeSGPcNOXhlWu-43" value="变更需求" style="curved=1;startArrow=none;endArrow=block;exitX=0.27;exitY=1;entryX=0.17;entryY=-0.01;rounded=0;" parent="1" source="h45MkuibeSGPcNOXhlWu-2" target="h45MkuibeSGPcNOXhlWu-4" edge="1">
          <mxGeometry relative="1" as="geometry">
            <Array as="points">
              <mxPoint x="954" y="278" />
            </Array>
          </mxGeometry>
        </mxCell>
        <mxCell id="h45MkuibeSGPcNOXhlWu-44" value="日常维护" style="curved=1;startArrow=none;endArrow=block;exitX=0.96;exitY=1;entryX=0;entryY=0.03;rounded=0;" parent="1" source="h45MkuibeSGPcNOXhlWu-2" target="h45MkuibeSGPcNOXhlWu-5" edge="1">
          <mxGeometry relative="1" as="geometry">
            <Array as="points">
              <mxPoint x="1086" y="278" />
            </Array>
          </mxGeometry>
        </mxCell>
        <mxCell id="h45MkuibeSGPcNOXhlWu-45" value="" style="curved=1;startArrow=none;endArrow=block;exitX=0.5;exitY=0.99;entryX=0.5;entryY=-0.01;rounded=0;" parent="1" source="h45MkuibeSGPcNOXhlWu-3" target="h45MkuibeSGPcNOXhlWu-6" edge="1">
          <mxGeometry relative="1" as="geometry">
            <Array as="points" />
          </mxGeometry>
        </mxCell>
        <mxCell id="h45MkuibeSGPcNOXhlWu-46" value="" style="curved=1;startArrow=none;endArrow=block;exitX=0.5;exitY=0.99;entryX=0.5;entryY=-0.01;rounded=0;" parent="1" source="h45MkuibeSGPcNOXhlWu-6" target="h45MkuibeSGPcNOXhlWu-7" edge="1">
          <mxGeometry relative="1" as="geometry">
            <Array as="points" />
          </mxGeometry>
        </mxCell>
        <mxCell id="h45MkuibeSGPcNOXhlWu-47" value="" style="curved=1;startArrow=none;endArrow=block;exitX=0.5;exitY=0.99;entryX=0.5;entryY=-0.01;rounded=0;" parent="1" source="h45MkuibeSGPcNOXhlWu-7" target="h45MkuibeSGPcNOXhlWu-8" edge="1">
          <mxGeometry relative="1" as="geometry">
            <Array as="points" />
          </mxGeometry>
        </mxCell>
        <mxCell id="h45MkuibeSGPcNOXhlWu-48" value="是" style="curved=1;startArrow=none;endArrow=block;exitX=0.45;exitY=0.99;entryX=0.5;entryY=0;rounded=0;" parent="1" source="h45MkuibeSGPcNOXhlWu-8" target="h45MkuibeSGPcNOXhlWu-9" edge="1">
          <mxGeometry relative="1" as="geometry">
            <Array as="points">
              <mxPoint x="683" y="717" />
            </Array>
          </mxGeometry>
        </mxCell>
        <mxCell id="h45MkuibeSGPcNOXhlWu-49" value="否" style="curved=1;startArrow=none;endArrow=block;exitX=1;exitY=0.78;entryX=0;entryY=0.29;rounded=0;" parent="1" source="h45MkuibeSGPcNOXhlWu-8" target="h45MkuibeSGPcNOXhlWu-10" edge="1">
          <mxGeometry relative="1" as="geometry">
            <Array as="points">
              <mxPoint x="958" y="717" />
            </Array>
          </mxGeometry>
        </mxCell>
        <mxCell id="h45MkuibeSGPcNOXhlWu-50" value="" style="curved=1;startArrow=none;endArrow=block;exitX=0.5;exitY=1;entryX=0.5;entryY=0;rounded=0;" parent="1" source="h45MkuibeSGPcNOXhlWu-10" target="h45MkuibeSGPcNOXhlWu-11" edge="1">
          <mxGeometry relative="1" as="geometry">
            <Array as="points" />
          </mxGeometry>
        </mxCell>
        <mxCell id="h45MkuibeSGPcNOXhlWu-51" value="" style="curved=1;startArrow=none;endArrow=block;exitX=0.5;exitY=1;entryX=0.5;entryY=0;rounded=0;" parent="1" source="h45MkuibeSGPcNOXhlWu-11" target="h45MkuibeSGPcNOXhlWu-12" edge="1">
          <mxGeometry relative="1" as="geometry">
            <Array as="points" />
          </mxGeometry>
        </mxCell>
        <mxCell id="h45MkuibeSGPcNOXhlWu-52" value="" style="curved=1;startArrow=none;endArrow=block;exitX=0.5;exitY=1;entryX=0.5;entryY=0;rounded=0;" parent="1" source="h45MkuibeSGPcNOXhlWu-12" target="h45MkuibeSGPcNOXhlWu-13" edge="1">
          <mxGeometry relative="1" as="geometry">
            <Array as="points" />
          </mxGeometry>
        </mxCell>
        <mxCell id="h45MkuibeSGPcNOXhlWu-53" value="" style="curved=1;startArrow=none;endArrow=block;exitX=0.5;exitY=1;entryX=0.5;entryY=0;rounded=0;" parent="1" source="h45MkuibeSGPcNOXhlWu-13" target="h45MkuibeSGPcNOXhlWu-14" edge="1">
          <mxGeometry relative="1" as="geometry">
            <Array as="points" />
          </mxGeometry>
        </mxCell>
        <mxCell id="h45MkuibeSGPcNOXhlWu-54" value="" style="curved=1;startArrow=none;endArrow=block;exitX=0.5;exitY=1;entryX=0.5;entryY=0;rounded=0;" parent="1" source="h45MkuibeSGPcNOXhlWu-14" target="h45MkuibeSGPcNOXhlWu-15" edge="1">
          <mxGeometry relative="1" as="geometry">
            <Array as="points" />
          </mxGeometry>
        </mxCell>
        <mxCell id="h45MkuibeSGPcNOXhlWu-55" value="" style="curved=1;startArrow=none;endArrow=block;exitX=0.5;exitY=0.99;entryX=0.5;entryY=-0.01;rounded=0;" parent="1" source="h45MkuibeSGPcNOXhlWu-4" target="h45MkuibeSGPcNOXhlWu-16" edge="1">
          <mxGeometry relative="1" as="geometry">
            <Array as="points" />
          </mxGeometry>
        </mxCell>
        <mxCell id="h45MkuibeSGPcNOXhlWu-56" value="" style="curved=1;startArrow=none;endArrow=block;exitX=0.5;exitY=0.99;entryX=0.5;entryY=-0.01;rounded=0;" parent="1" source="h45MkuibeSGPcNOXhlWu-16" target="h45MkuibeSGPcNOXhlWu-17" edge="1">
          <mxGeometry relative="1" as="geometry">
            <Array as="points" />
          </mxGeometry>
        </mxCell>
        <mxCell id="h45MkuibeSGPcNOXhlWu-57" value="" style="curved=1;startArrow=none;endArrow=block;exitX=0.5;exitY=0.99;entryX=0.5;entryY=-0.01;rounded=0;" parent="1" source="h45MkuibeSGPcNOXhlWu-17" target="h45MkuibeSGPcNOXhlWu-18" edge="1">
          <mxGeometry relative="1" as="geometry">
            <Array as="points" />
          </mxGeometry>
        </mxCell>
        <mxCell id="h45MkuibeSGPcNOXhlWu-58" value="" style="curved=1;startArrow=none;endArrow=block;exitX=0.5;exitY=0.99;entryX=0.77;entryY=0;rounded=0;" parent="1" source="h45MkuibeSGPcNOXhlWu-18" target="h45MkuibeSGPcNOXhlWu-19" edge="1">
          <mxGeometry relative="1" as="geometry">
            <Array as="points">
              <mxPoint x="1076" y="717" />
            </Array>
          </mxGeometry>
        </mxCell>
        <mxCell id="h45MkuibeSGPcNOXhlWu-59" value="" style="curved=1;startArrow=none;endArrow=block;exitX=0.5;exitY=1;entryX=0.5;entryY=0;rounded=0;" parent="1" source="h45MkuibeSGPcNOXhlWu-19" target="h45MkuibeSGPcNOXhlWu-20" edge="1">
          <mxGeometry relative="1" as="geometry">
            <Array as="points" />
          </mxGeometry>
        </mxCell>
        <mxCell id="h45MkuibeSGPcNOXhlWu-60" value="" style="curved=1;startArrow=none;endArrow=block;exitX=0.5;exitY=1;entryX=0.5;entryY=0;rounded=0;" parent="1" source="h45MkuibeSGPcNOXhlWu-20" target="h45MkuibeSGPcNOXhlWu-21" edge="1">
          <mxGeometry relative="1" as="geometry">
            <Array as="points" />
          </mxGeometry>
        </mxCell>
        <mxCell id="h45MkuibeSGPcNOXhlWu-61" value="" style="curved=1;startArrow=none;endArrow=block;exitX=0.5;exitY=0.99;entryX=0.5;entryY=-0.01;rounded=0;" parent="1" source="h45MkuibeSGPcNOXhlWu-5" target="h45MkuibeSGPcNOXhlWu-22" edge="1">
          <mxGeometry relative="1" as="geometry">
            <Array as="points" />
          </mxGeometry>
        </mxCell>
        <mxCell id="h45MkuibeSGPcNOXhlWu-62" value="" style="curved=1;startArrow=none;endArrow=block;exitX=0.5;exitY=0.99;entryX=0.5;entryY=-0.01;rounded=0;" parent="1" source="h45MkuibeSGPcNOXhlWu-22" target="h45MkuibeSGPcNOXhlWu-23" edge="1">
          <mxGeometry relative="1" as="geometry">
            <Array as="points" />
          </mxGeometry>
        </mxCell>
        <mxCell id="h45MkuibeSGPcNOXhlWu-63" value="" style="curved=1;startArrow=none;endArrow=block;exitX=0.5;exitY=0.99;entryX=0.5;entryY=-0.01;rounded=0;" parent="1" source="h45MkuibeSGPcNOXhlWu-23" target="h45MkuibeSGPcNOXhlWu-24" edge="1">
          <mxGeometry relative="1" as="geometry">
            <Array as="points" />
          </mxGeometry>
        </mxCell>
        <mxCell id="h45MkuibeSGPcNOXhlWu-64" value="" style="curved=1;startArrow=none;endArrow=block;exitX=0.5;exitY=0.99;entryX=0.77;entryY=0;rounded=0;" parent="1" source="h45MkuibeSGPcNOXhlWu-24" target="h45MkuibeSGPcNOXhlWu-25" edge="1">
          <mxGeometry relative="1" as="geometry">
            <Array as="points">
              <mxPoint x="1282" y="717" />
            </Array>
          </mxGeometry>
        </mxCell>
        <mxCell id="h45MkuibeSGPcNOXhlWu-65" value="" style="curved=1;startArrow=none;endArrow=block;exitX=0.5;exitY=0.99;entryX=0.5;entryY=-0.01;rounded=0;" parent="1" source="h45MkuibeSGPcNOXhlWu-26" target="h45MkuibeSGPcNOXhlWu-27" edge="1">
          <mxGeometry relative="1" as="geometry">
            <Array as="points" />
          </mxGeometry>
        </mxCell>
        <mxCell id="h45MkuibeSGPcNOXhlWu-66" value="" style="curved=1;startArrow=none;endArrow=block;exitX=0.5;exitY=0.99;entryX=0.5;entryY=-0.01;rounded=0;" parent="1" source="h45MkuibeSGPcNOXhlWu-27" target="h45MkuibeSGPcNOXhlWu-28" edge="1">
          <mxGeometry relative="1" as="geometry">
            <Array as="points" />
          </mxGeometry>
        </mxCell>
        <mxCell id="h45MkuibeSGPcNOXhlWu-67" value="" style="curved=1;startArrow=none;endArrow=block;exitX=0.5;exitY=0.99;entryX=0.5;entryY=-0.01;rounded=0;" parent="1" source="h45MkuibeSGPcNOXhlWu-28" target="h45MkuibeSGPcNOXhlWu-29" edge="1">
          <mxGeometry relative="1" as="geometry">
            <Array as="points" />
          </mxGeometry>
        </mxCell>
        <mxCell id="h45MkuibeSGPcNOXhlWu-68" value="" style="curved=1;startArrow=none;endArrow=block;exitX=0.5;exitY=1;entryX=0;entryY=0.41;rounded=0;" parent="1" source="h45MkuibeSGPcNOXhlWu-9" target="h45MkuibeSGPcNOXhlWu-30" edge="1">
          <mxGeometry relative="1" as="geometry">
            <Array as="points">
              <mxPoint x="683" y="1352" />
            </Array>
          </mxGeometry>
        </mxCell>
        <mxCell id="h45MkuibeSGPcNOXhlWu-69" value="" style="curved=1;startArrow=none;endArrow=block;exitX=0.5;exitY=1;entryX=0.66;entryY=0;rounded=0;" parent="1" source="h45MkuibeSGPcNOXhlWu-15" target="h45MkuibeSGPcNOXhlWu-30" edge="1">
          <mxGeometry relative="1" as="geometry">
            <Array as="points">
              <mxPoint x="1393" y="1352" />
            </Array>
          </mxGeometry>
        </mxCell>
        <mxCell id="h45MkuibeSGPcNOXhlWu-70" value="" style="curved=1;startArrow=none;endArrow=block;exitX=0.5;exitY=1;entryX=0;entryY=0.33;rounded=0;" parent="1" source="h45MkuibeSGPcNOXhlWu-21" target="h45MkuibeSGPcNOXhlWu-30" edge="1">
          <mxGeometry relative="1" as="geometry">
            <Array as="points">
              <mxPoint x="997" y="1352" />
            </Array>
          </mxGeometry>
        </mxCell>
        <mxCell id="h45MkuibeSGPcNOXhlWu-71" value="" style="curved=1;startArrow=none;endArrow=block;exitX=0.5;exitY=1;entryX=0;entryY=0.11;rounded=0;" parent="1" source="h45MkuibeSGPcNOXhlWu-25" target="h45MkuibeSGPcNOXhlWu-30" edge="1">
          <mxGeometry relative="1" as="geometry">
            <Array as="points">
              <mxPoint x="1203" y="1352" />
            </Array>
          </mxGeometry>
        </mxCell>
        <mxCell id="h45MkuibeSGPcNOXhlWu-72" value="" style="curved=1;startArrow=none;endArrow=block;exitX=0.5;exitY=0.99;entryX=1;entryY=0.19;rounded=0;" parent="1" source="h45MkuibeSGPcNOXhlWu-29" target="h45MkuibeSGPcNOXhlWu-30" edge="1">
          <mxGeometry relative="1" as="geometry">
            <Array as="points">
              <mxPoint x="1547" y="1352" />
            </Array>
          </mxGeometry>
        </mxCell>
        <mxCell id="h45MkuibeSGPcNOXhlWu-73" value="" style="curved=1;startArrow=none;endArrow=block;exitX=0.5;exitY=1;entryX=0.5;entryY=0;rounded=0;" parent="1" source="h45MkuibeSGPcNOXhlWu-30" target="h45MkuibeSGPcNOXhlWu-31" edge="1">
          <mxGeometry relative="1" as="geometry">
            <Array as="points" />
          </mxGeometry>
        </mxCell>
        <mxCell id="h45MkuibeSGPcNOXhlWu-74" value="" style="curved=1;startArrow=none;endArrow=block;exitX=0.5;exitY=1;entryX=0.5;entryY=0;rounded=0;" parent="1" source="h45MkuibeSGPcNOXhlWu-31" target="h45MkuibeSGPcNOXhlWu-32" edge="1">
          <mxGeometry relative="1" as="geometry">
            <Array as="points" />
          </mxGeometry>
        </mxCell>
        <mxCell id="h45MkuibeSGPcNOXhlWu-75" value="" style="curved=1;startArrow=none;endArrow=block;exitX=0;exitY=0.71;entryX=0.5;entryY=0;rounded=0;" parent="1" source="h45MkuibeSGPcNOXhlWu-33" target="h45MkuibeSGPcNOXhlWu-34" edge="1">
          <mxGeometry relative="1" as="geometry">
            <Array as="points">
              <mxPoint x="82" y="99" />
            </Array>
          </mxGeometry>
        </mxCell>
        <mxCell id="h45MkuibeSGPcNOXhlWu-76" value="" style="curved=1;startArrow=none;endArrow=block;exitX=0;exitY=1;entryX=0.5;entryY=0;rounded=0;" parent="1" source="h45MkuibeSGPcNOXhlWu-33" target="h45MkuibeSGPcNOXhlWu-35" edge="1">
          <mxGeometry relative="1" as="geometry">
            <Array as="points">
              <mxPoint x="264" y="99" />
            </Array>
          </mxGeometry>
        </mxCell>
        <mxCell id="h45MkuibeSGPcNOXhlWu-77" value="" style="curved=1;startArrow=none;endArrow=block;exitX=0.62;exitY=1;entryX=0.5;entryY=0;rounded=0;" parent="1" source="h45MkuibeSGPcNOXhlWu-33" target="h45MkuibeSGPcNOXhlWu-36" edge="1">
          <mxGeometry relative="1" as="geometry">
            <Array as="points">
              <mxPoint x="434" y="99" />
            </Array>
          </mxGeometry>
        </mxCell>
        <mxCell id="h45MkuibeSGPcNOXhlWu-78" value="" style="curved=1;startArrow=none;endArrow=block;exitX=1;exitY=0.83;entryX=0.5;entryY=0;rounded=0;" parent="1" source="h45MkuibeSGPcNOXhlWu-33" target="h45MkuibeSGPcNOXhlWu-37" edge="1">
          <mxGeometry relative="1" as="geometry">
            <Array as="points">
              <mxPoint x="603" y="99" />
            </Array>
          </mxGeometry>
        </mxCell>
        <mxCell id="h45MkuibeSGPcNOXhlWu-79" value="" style="curved=1;startArrow=none;endArrow=block;exitX=1;exitY=0.67;entryX=0.5;entryY=0;rounded=0;" parent="1" source="h45MkuibeSGPcNOXhlWu-33" target="h45MkuibeSGPcNOXhlWu-38" edge="1">
          <mxGeometry relative="1" as="geometry">
            <Array as="points">
              <mxPoint x="793" y="99" />
            </Array>
          </mxGeometry>
        </mxCell>
        <mxCell id="h45MkuibeSGPcNOXhlWu-80" value="" style="curved=1;startArrow=none;endArrow=block;exitX=0.5;exitY=1;entryX=0;entryY=0.34;rounded=0;" parent="1" source="h45MkuibeSGPcNOXhlWu-34" target="h45MkuibeSGPcNOXhlWu-3" edge="1">
          <mxGeometry relative="1" as="geometry">
            <Array as="points">
              <mxPoint x="82" y="278" />
            </Array>
          </mxGeometry>
        </mxCell>
        <mxCell id="h45MkuibeSGPcNOXhlWu-81" value="" style="curved=1;startArrow=none;endArrow=block;exitX=0.5;exitY=1;entryX=0;entryY=0.28;rounded=0;" parent="1" source="h45MkuibeSGPcNOXhlWu-35" target="h45MkuibeSGPcNOXhlWu-3" edge="1">
          <mxGeometry relative="1" as="geometry">
            <Array as="points">
              <mxPoint x="264" y="278" />
            </Array>
          </mxGeometry>
        </mxCell>
        <mxCell id="h45MkuibeSGPcNOXhlWu-82" value="" style="curved=1;startArrow=none;endArrow=block;exitX=0.5;exitY=1;entryX=0;entryY=0.15;rounded=0;" parent="1" source="h45MkuibeSGPcNOXhlWu-36" target="h45MkuibeSGPcNOXhlWu-3" edge="1">
          <mxGeometry relative="1" as="geometry">
            <Array as="points">
              <mxPoint x="434" y="278" />
            </Array>
          </mxGeometry>
        </mxCell>
        <mxCell id="h45MkuibeSGPcNOXhlWu-83" value="" style="curved=1;startArrow=none;endArrow=block;exitX=0.5;exitY=1;entryX=0.24;entryY=-0.01;rounded=0;" parent="1" source="h45MkuibeSGPcNOXhlWu-37" target="h45MkuibeSGPcNOXhlWu-3" edge="1">
          <mxGeometry relative="1" as="geometry">
            <Array as="points">
              <mxPoint x="603" y="278" />
            </Array>
          </mxGeometry>
        </mxCell>
        <mxCell id="h45MkuibeSGPcNOXhlWu-84" value="" style="curved=1;startArrow=none;endArrow=block;exitX=0.5;exitY=1;entryX=0.76;entryY=-0.01;rounded=0;" parent="1" source="h45MkuibeSGPcNOXhlWu-38" target="h45MkuibeSGPcNOXhlWu-3" edge="1">
          <mxGeometry relative="1" as="geometry">
            <Array as="points">
              <mxPoint x="793" y="278" />
            </Array>
          </mxGeometry>
        </mxCell>
        <mxCell id="h45MkuibeSGPcNOXhlWu-85" value="" style="curved=1;startArrow=none;endArrow=block;exitX=0.12;exitY=1;entryX=1;entryY=0.28;rounded=0;" parent="1" source="h45MkuibeSGPcNOXhlWu-39" target="h45MkuibeSGPcNOXhlWu-3" edge="1">
          <mxGeometry relative="1" as="geometry">
            <Array as="points">
              <mxPoint x="1140" y="278" />
            </Array>
          </mxGeometry>
        </mxCell>
        <mxCell id="h45MkuibeSGPcNOXhlWu-86" value="" style="curved=1;startArrow=none;endArrow=block;exitX=0.22;exitY=1;entryX=0.84;entryY=-0.01;rounded=0;" parent="1" source="h45MkuibeSGPcNOXhlWu-39" target="h45MkuibeSGPcNOXhlWu-4" edge="1">
          <mxGeometry relative="1" as="geometry">
            <Array as="points">
              <mxPoint x="1201" y="278" />
            </Array>
          </mxGeometry>
        </mxCell>
        <mxCell id="h45MkuibeSGPcNOXhlWu-87" value="" style="curved=1;startArrow=none;endArrow=block;exitX=0.42;exitY=1;entryX=0.63;entryY=-0.01;rounded=0;" parent="1" source="h45MkuibeSGPcNOXhlWu-39" target="h45MkuibeSGPcNOXhlWu-5" edge="1">
          <mxGeometry relative="1" as="geometry">
            <Array as="points">
              <mxPoint x="1329" y="278" />
            </Array>
          </mxGeometry>
        </mxCell>
        <mxCell id="h45MkuibeSGPcNOXhlWu-88" value="" style="curved=1;startArrow=none;endArrow=block;exitX=0.59;exitY=1;entryX=0.61;entryY=0;rounded=0;" parent="1" source="h45MkuibeSGPcNOXhlWu-39" target="h45MkuibeSGPcNOXhlWu-10" edge="1">
          <mxGeometry relative="1" as="geometry">
            <Array as="points">
              <mxPoint x="1434" y="278" />
              <mxPoint x="1434" y="717" />
            </Array>
          </mxGeometry>
        </mxCell>
        <mxCell id="h45MkuibeSGPcNOXhlWu-89" value="" style="curved=1;startArrow=none;endArrow=block;exitX=0.77;exitY=1;entryX=0.5;entryY=-0.01;rounded=0;" parent="1" source="h45MkuibeSGPcNOXhlWu-39" target="h45MkuibeSGPcNOXhlWu-26" edge="1">
          <mxGeometry relative="1" as="geometry">
            <Array as="points">
              <mxPoint x="1547" y="278" />
            </Array>
          </mxGeometry>
        </mxCell>
        <mxCell id="h45MkuibeSGPcNOXhlWu-90" value="" style="curved=1;startArrow=none;endArrow=block;exitX=0.36;exitY=1;entryX=1;entryY=0.39;rounded=0;" parent="1" source="h45MkuibeSGPcNOXhlWu-40" target="h45MkuibeSGPcNOXhlWu-3" edge="1">
          <mxGeometry relative="1" as="geometry">
            <Array as="points">
              <mxPoint x="1584" y="278" />
            </Array>
          </mxGeometry>
        </mxCell>
        <mxCell id="h45MkuibeSGPcNOXhlWu-91" value="" style="curved=1;startArrow=none;endArrow=block;exitX=0.4;exitY=1;entryX=1;entryY=0.32;rounded=0;" parent="1" source="h45MkuibeSGPcNOXhlWu-40" target="h45MkuibeSGPcNOXhlWu-4" edge="1">
          <mxGeometry relative="1" as="geometry">
            <Array as="points">
              <mxPoint x="1604" y="278" />
            </Array>
          </mxGeometry>
        </mxCell>
        <mxCell id="h45MkuibeSGPcNOXhlWu-92" value="" style="curved=1;startArrow=none;endArrow=block;exitX=0.44;exitY=1;entryX=1;entryY=0.22;rounded=0;" parent="1" source="h45MkuibeSGPcNOXhlWu-40" target="h45MkuibeSGPcNOXhlWu-5" edge="1">
          <mxGeometry relative="1" as="geometry">
            <Array as="points">
              <mxPoint x="1624" y="278" />
            </Array>
          </mxGeometry>
        </mxCell>
        <mxCell id="h45MkuibeSGPcNOXhlWu-93" value="" style="curved=1;startArrow=none;endArrow=block;exitX=0.5;exitY=1;entryX=1;entryY=0.16;rounded=0;" parent="1" source="h45MkuibeSGPcNOXhlWu-40" target="h45MkuibeSGPcNOXhlWu-10" edge="1">
          <mxGeometry relative="1" as="geometry">
            <Array as="points">
              <mxPoint x="1660" y="717" />
            </Array>
          </mxGeometry>
        </mxCell>
        <mxCell id="h45MkuibeSGPcNOXhlWu-94" value="" style="curved=1;startArrow=none;endArrow=block;exitX=0.54;exitY=1;entryX=0.96;entryY=-0.01;rounded=0;" parent="1" source="h45MkuibeSGPcNOXhlWu-40" target="h45MkuibeSGPcNOXhlWu-26" edge="1">
          <mxGeometry relative="1" as="geometry">
            <Array as="points">
              <mxPoint x="1680" y="278" />
            </Array>
          </mxGeometry>
        </mxCell>
      </root>
    </mxGraphModel>
  </diagram>
</mxfile>
